<svg width="30" height="29" viewBox="0 0 30 29" fill="none" xmlns="http://www.w3.org/2000/svg">
<path d="M15 0C12.0333 0 9.13319 0.829464 6.66645 2.3835C4.19971 3.93754 2.27713 6.14635 1.14181 8.73062C0.00649927 11.3149 -0.290551 14.1585 0.288227 16.902C0.867006 19.6454 2.29562 22.1654 4.3934 24.1434C6.49119 26.1213 9.16393 27.4683 12.0736 28.014C14.9834 28.5597 17.9994 28.2796 20.7403 27.2091C23.4811 26.1387 25.8238 24.326 27.472 22.0002C29.1203 19.6744 30 16.94 30 14.1429C29.9955 10.3932 28.4137 6.79841 25.6016 4.14703C22.7896 1.49565 18.9769 0.00424391 15 0ZM15 26.1099C12.4897 26.1099 10.0358 25.408 7.94854 24.0931C5.8613 22.7781 4.23449 20.9091 3.27384 18.7224C2.31319 16.5357 2.06184 14.1296 2.55158 11.8082C3.04131 9.48683 4.25014 7.35451 6.02519 5.68089C7.80024 4.00727 10.0618 2.86752 12.5239 2.40577C14.9859 1.94402 17.5379 2.181 19.8571 3.08676C22.1764 3.99252 24.1586 5.52636 25.5533 7.49433C26.9479 9.4623 27.6923 11.776 27.6923 14.1429C27.6885 17.3156 26.3501 20.3574 23.9706 22.6009C21.5912 24.8443 18.365 26.1063 15 26.1099ZM21.9231 14.1429C21.9231 14.4314 21.8015 14.7081 21.5851 14.9121C21.3687 15.1161 21.0752 15.2308 20.7692 15.2308H16.1538V19.5824C16.1538 19.8709 16.0323 20.1477 15.8159 20.3517C15.5995 20.5557 15.306 20.6703 15 20.6703C14.694 20.6703 14.4005 20.5557 14.1841 20.3517C13.9677 20.1477 13.8462 19.8709 13.8462 19.5824V15.2308H9.23077C8.92476 15.2308 8.63127 15.1161 8.41488 14.9121C8.19849 14.7081 8.07693 14.4314 8.07693 14.1429C8.07693 13.8543 8.19849 13.5776 8.41488 13.3736C8.63127 13.1696 8.92476 13.0549 9.23077 13.0549H13.8462V8.70329C13.8462 8.41476 13.9677 8.13805 14.1841 7.93403C14.4005 7.73 14.694 7.61538 15 7.61538C15.306 7.61538 15.5995 7.73 15.8159 7.93403C16.0323 8.13805 16.1538 8.41476 16.1538 8.70329V13.0549H20.7692C21.0752 13.055 21.3687 13.1696 21.5851 13.3736C21.8015 13.5776 21.9231 13.8543 21.9231 14.1429Z" fill="black"/>
</svg>
