<svg width="24" height="25" viewBox="0 0 24 25" fill="none" xmlns="http://www.w3.org/2000/svg">
<path d="M10.6 13.207C10.4125 13.0195 10.3072 12.7651 10.3072 12.5C10.3072 12.2348 10.4125 11.9805 10.6 11.793L15.185 7.20698C15.3672 7.01838 15.468 6.76578 15.4657 6.50358C15.4634 6.24138 15.3582 5.99057 15.1728 5.80516C14.9874 5.61975 14.7366 5.51458 14.4744 5.51231C14.2122 5.51003 13.9596 5.61082 13.771 5.79298L9.189 10.379C8.62659 10.9416 8.31064 11.7045 8.31064 12.5C8.31064 13.2955 8.62659 14.0584 9.189 14.621L13.775 19.207C13.9636 19.3891 14.2162 19.4899 14.4784 19.4877C14.7406 19.4854 14.9914 19.3802 15.1768 19.1948C15.3622 19.0094 15.4674 18.7586 15.4697 18.4964C15.472 18.2342 15.3712 17.9816 15.189 17.793L10.6 13.207Z" fill="#161616"/>
</svg>
