<svg width="32" height="35" viewBox="0 0 32 35" fill="none" xmlns="http://www.w3.org/2000/svg">
<path d="M29.3333 2.66667H25.3333V1.33333C25.3333 0.979711 25.1929 0.640573 24.9428 0.390524C24.6928 0.140476 24.3536 0 24 0C23.6464 0 23.3072 0.140476 23.0572 0.390524C22.8071 0.640573 22.6667 0.979711 22.6667 1.33333V2.66667H9.33333V1.33333C9.33333 0.979711 9.19286 0.640573 8.94281 0.390524C8.69276 0.140476 8.35362 0 8 0C7.64638 0 7.30724 0.140476 7.05719 0.390524C6.80714 0.640573 6.66667 0.979711 6.66667 1.33333V2.66667H2.66667C1.95967 2.66747 1.28186 2.94869 0.781942 3.44861C0.28202 3.94853 0.000808563 4.62634 0 5.33333V32C0.000808563 32.707 0.28202 33.3848 0.781942 33.8847C1.28186 34.3846 1.95967 34.6659 2.66667 34.6667H29.3333C30.0403 34.6659 30.7181 34.3846 31.2181 33.8847C31.718 33.3848 31.9992 32.707 32 32V5.33333C31.9992 4.62634 31.718 3.94853 31.2181 3.44861C30.7181 2.94869 30.0403 2.66747 29.3333 2.66667ZM6.66667 5.33333V6.66667C6.66667 7.02029 6.80714 7.35943 7.05719 7.60948C7.30724 7.85952 7.64638 8 8 8C8.35362 8 8.69276 7.85952 8.94281 7.60948C9.19286 7.35943 9.33333 7.02029 9.33333 6.66667V5.33333H22.6667V6.66667C22.6667 7.02029 22.8071 7.35943 23.0572 7.60948C23.3072 7.85952 23.6464 8 24 8C24.3536 8 24.6928 7.85952 24.9428 7.60948C25.1929 7.35943 25.3333 7.02029 25.3333 6.66667V5.33333H29.3333L29.3337 10.6667H2.66667V5.33333H6.66667ZM29.3333 32H2.66667V13.3333H29.3338L29.335 32H29.3333Z" fill="#A0AAB8"/>
</svg>
