<svg width="32" height="35" viewBox="0 0 32 35" fill="none" xmlns="http://www.w3.org/2000/svg">
<path d="M29.3333 2.66667H25.3333V1.33333C25.3333 0.979712 25.1929 0.640573 24.9428 0.390524C24.6928 0.140476 24.3536 0 24 0C23.6464 0 23.3072 0.140476 23.0572 0.390524C22.8071 0.640573 22.6667 0.979712 22.6667 1.33333V2.66667H9.33333V1.33333C9.33333 0.979712 9.19286 0.640573 8.94281 0.390524C8.69276 0.140476 8.35362 0 8 0C7.64638 0 7.30724 0.140476 7.05719 0.390524C6.80714 0.640573 6.66667 0.979712 6.66667 1.33333V2.66667H2.66667C1.95964 2.66737 1.28177 2.94854 0.78182 3.44849C0.281874 3.94843 0.000698481 4.6263 0 5.33333V32C0.000698041 32.707 0.281874 33.3849 0.78182 33.8848C1.28177 34.3848 1.95964 34.666 2.66667 34.6667H29.3333C30.0404 34.666 30.7182 34.3848 31.2182 33.8848C31.7181 33.3849 31.9993 32.707 32 32V5.33333C31.9993 4.6263 31.7181 3.94843 31.2182 3.44849C30.7182 2.94854 30.0404 2.66736 29.3333 2.66667ZM29.3333 10.6667H2.66667V5.33333H6.66667V6.66667C6.66667 7.02029 6.80714 7.35943 7.05719 7.60948C7.30724 7.85952 7.64638 8 8 8C8.35362 8 8.69276 7.85952 8.94281 7.60948C9.19286 7.35943 9.33333 7.02029 9.33333 6.66667V5.33333H22.6667V6.66667C22.6667 7.02029 22.8071 7.35943 23.0572 7.60948C23.3072 7.85952 23.6464 8 24 8C24.3536 8 24.6928 7.85952 24.9428 7.60948C25.1929 7.35943 25.3333 7.02029 25.3333 6.66667V5.33333H29.3333V10.6667Z" fill="#00658F"/>
</svg>
