<svg width="34" height="34" viewBox="0 0 34 34" fill="none" xmlns="http://www.w3.org/2000/svg">
<path d="M32.5833 5.23077H25.5007V3.92308C25.4994 2.88297 25.0512 1.88581 24.2545 1.15034C23.4577 0.414876 22.3775 0.00117592 21.2507 0H12.7507C11.6239 0.00117592 10.5436 0.414876 9.7469 1.15034C8.95014 1.88581 8.50197 2.88297 8.50069 3.92308V5.23077H1.41667C1.04094 5.23077 0.680609 5.36854 0.414932 5.61378C0.149256 5.85902 0 6.19164 0 6.53846C0 6.88528 0.149256 7.2179 0.414932 7.46314C0.680609 7.70838 1.04094 7.84615 1.41667 7.84615H2.83333V31.3846C2.83419 32.078 3.13298 32.7428 3.66415 33.2331C4.19531 33.7234 4.91548 33.9992 5.66667 34H28.3333C29.0845 33.9992 29.8047 33.7234 30.3359 33.2331C30.867 32.7428 31.1658 32.078 31.1667 31.3846V7.84615H32.5833C32.9591 7.84615 33.3194 7.70838 33.5851 7.46314C33.8507 7.2179 34 6.88528 34 6.53846C34 6.19164 33.8507 5.85902 33.5851 5.61378C33.3194 5.36854 32.9591 5.23077 32.5833 5.23077ZM11.334 3.92308C11.3345 3.57638 11.4838 3.24399 11.7494 2.99884C12.015 2.75368 12.3751 2.61578 12.7507 2.61538H21.2507C21.6263 2.61578 21.9864 2.75368 22.252 2.99884C22.5175 3.24399 22.6669 3.57638 22.6674 3.92308V5.23077H11.334V3.92308ZM28.3333 31.3846H5.66667V7.84615H28.3333V31.3846ZM14.1674 14.3846V24.8462C14.1674 25.193 14.0181 25.5256 13.7524 25.7708C13.4868 26.0161 13.1264 26.1538 12.7507 26.1538C12.375 26.1538 12.0146 26.0161 11.749 25.7708C11.4833 25.5256 11.334 25.193 11.334 24.8462V14.3846C11.334 14.0378 11.4833 13.7052 11.749 13.4599C12.0146 13.2147 12.375 13.0769 12.7507 13.0769C13.1264 13.0769 13.4868 13.2147 13.7524 13.4599C14.0181 13.7052 14.1674 14.0378 14.1674 14.3846ZM22.6674 14.3846V24.8462C22.6674 25.193 22.5181 25.5256 22.2524 25.7708C21.9868 26.0161 21.6264 26.1538 21.2507 26.1538C20.875 26.1538 20.5146 26.0161 20.249 25.7708C19.9833 25.5256 19.834 25.193 19.834 24.8462V14.3846C19.834 14.0378 19.9833 13.7052 20.249 13.4599C20.5146 13.2147 20.875 13.0769 21.2507 13.0769C21.6264 13.0769 21.9868 13.2147 22.2524 13.4599C22.5181 13.7052 22.6674 14.0378 22.6674 14.3846Z" fill="#A0AAB8"/>
</svg>
