<svg width="32" height="32" viewBox="0 0 32 32" fill="none" xmlns="http://www.w3.org/2000/svg">
<path d="M20.8 31.4688V23.4688C20.8 22.1958 20.2943 20.9749 19.3941 20.0747C18.4939 19.1745 17.273 18.6688 16 18.6688C14.727 18.6688 13.5061 19.1745 12.6059 20.0747C11.7057 20.9749 11.2 22.1958 11.2 23.4688V31.4688H3.2C2.35131 31.4688 1.53737 31.1317 0.937258 30.5316C0.337142 29.9315 1.48143e-10 29.1175 1.48143e-10 28.2688V10.88C-5.31639e-06 10.3274 0.143089 9.78426 0.415349 9.30338C0.687609 8.82251 1.07975 8.42034 1.5536 8.13603L14.3536 0.456031C14.8509 0.157628 15.42 0 16 0C16.58 0 17.1491 0.157628 17.6464 0.456031L30.4464 8.13603C30.9202 8.42034 31.3124 8.82251 31.5847 9.30338C31.8569 9.78426 32 10.3274 32 10.88V28.2688C32 29.1175 31.6629 29.9315 31.0627 30.5316C30.4626 31.1317 29.6487 31.4688 28.8 31.4688H20.8Z" fill="#00658F"/>
</svg>
