<svg width="32" height="32" viewBox="0 0 32 32" fill="none" xmlns="http://www.w3.org/2000/svg">
<path d="M28.8 28.2688V10.88L16 3.20003L3.2 10.88V28.2688H9.6V23.8688C9.6 22.1714 10.2743 20.5436 11.4745 19.3433C12.6747 18.1431 14.3026 17.4688 16 17.4688C17.6974 17.4688 19.3253 18.1431 20.5255 19.3433C21.7257 20.5436 22.4 22.1714 22.4 23.8688V28.2688H28.8ZM19.2 31.4688V23.8688C19.2 23.0201 18.8629 22.2062 18.2627 21.6061C17.6626 21.006 16.8487 20.6688 16 20.6688C15.1513 20.6688 14.3374 21.006 13.7373 21.6061C13.1371 22.2062 12.8 23.0201 12.8 23.8688V31.4688H3.2C2.35131 31.4688 1.53737 31.1317 0.937258 30.5316C0.337142 29.9315 1.48143e-10 29.1175 1.48143e-10 28.2688V10.88C-5.31639e-06 10.3274 0.143089 9.78426 0.415349 9.30338C0.687609 8.82251 1.07975 8.42034 1.5536 8.13603L14.3536 0.456031C14.8509 0.157628 15.42 0 16 0C16.58 0 17.1491 0.157628 17.6464 0.456031L30.4464 8.13603C30.9202 8.42034 31.3124 8.82251 31.5847 9.30338C31.8569 9.78426 32 10.3274 32 10.88V28.2688C32 29.1175 31.6629 29.9315 31.0627 30.5316C30.4626 31.1317 29.6487 31.4688 28.8 31.4688H19.2Z" fill="#A0AAB8"/>
</svg>
