<svg width="32" height="32" viewBox="0 0 32 32" fill="none" xmlns="http://www.w3.org/2000/svg">
<path d="M9.6 0H22.4C24.9461 0 27.3879 1.01143 29.1882 2.81177C30.9886 4.61212 32 7.05392 32 9.6V22.4C32 24.9461 30.9886 27.3879 29.1882 29.1882C27.3879 30.9886 24.9461 32 22.4 32H9.6C7.05392 32 4.61212 30.9886 2.81177 29.1882C1.01143 27.3879 0 24.9461 0 22.4L0 9.6C0 7.05392 1.01143 4.61212 2.81177 2.81177C4.61212 1.01143 7.05392 0 9.6 0ZM19.2 14.4C18.7757 14.4 18.3687 14.5686 18.0686 14.8686C17.7686 15.1687 17.6 15.5757 17.6 16C17.6 16.4243 17.7686 16.8313 18.0686 17.1314C18.3687 17.4314 18.7757 17.6 19.2 17.6H24C24.4243 17.6 24.8313 17.4314 25.1314 17.1314C25.4314 16.8313 25.6 16.4243 25.6 16C25.6 15.5757 25.4314 15.1687 25.1314 14.8686C24.8313 14.5686 24.4243 14.4 24 14.4H19.2ZM16 20.8C15.5757 20.8 15.1687 20.9686 14.8686 21.2686C14.5686 21.5687 14.4 21.9757 14.4 22.4C14.4 22.8243 14.5686 23.2313 14.8686 23.5314C15.1687 23.8314 15.5757 24 16 24H24C24.4243 24 24.8313 23.8314 25.1314 23.5314C25.4314 23.2313 25.6 22.8243 25.6 22.4C25.6 21.9757 25.4314 21.5687 25.1314 21.2686C24.8313 20.9686 24.4243 20.8 24 20.8H16ZM16 8C15.5757 8 15.1687 8.16857 14.8686 8.46863C14.5686 8.76869 14.4 9.17565 14.4 9.6C14.4 10.0243 14.5686 10.4313 14.8686 10.7314C15.1687 11.0314 15.5757 11.2 16 11.2H24C24.4243 11.2 24.8313 11.0314 25.1314 10.7314C25.4314 10.4313 25.6 10.0243 25.6 9.6C25.6 9.17565 25.4314 8.76869 25.1314 8.46863C24.8313 8.16857 24.4243 8 24 8H16ZM9.3248 16.3888L8.1936 15.2576C8.04601 15.1048 7.86945 14.9829 7.67425 14.899C7.47904 14.8152 7.26909 14.771 7.05664 14.7692C6.8442 14.7674 6.63351 14.8078 6.43687 14.8883C6.24024 14.9687 6.0616 15.0875 5.91137 15.2378C5.76114 15.388 5.64233 15.5666 5.56189 15.7633C5.48144 15.9599 5.44095 16.1706 5.4428 16.383C5.44465 16.5955 5.48878 16.8054 5.57264 17.0006C5.65649 17.1959 5.77838 17.3724 5.9312 17.52L8.1936 19.7824C8.3422 19.9312 8.51866 20.0492 8.7129 20.1297C8.90713 20.2102 9.11534 20.2517 9.3256 20.2517C9.53586 20.2517 9.74407 20.2102 9.9383 20.1297C10.1325 20.0492 10.309 19.9312 10.4576 19.7824L14.9824 15.2576C15.2828 14.9576 15.4518 14.5505 15.4521 14.1259C15.4524 13.7013 15.284 13.294 14.984 12.9936C14.684 12.6932 14.2769 12.5242 13.8523 12.5239C13.4277 12.5236 13.0204 12.692 12.72 12.992L9.3248 16.3872V16.3888Z" fill="#00658F"/>
</svg>
