<svg width="33" height="33" viewBox="0 0 33 33" fill="none" xmlns="http://www.w3.org/2000/svg">
<path d="M9.9 0H23.1C25.7256 0 28.2437 1.04303 30.1004 2.89964C31.957 4.75625 33 7.27436 33 9.9V23.1C33 25.7256 31.957 28.2437 30.1004 30.1004C28.2437 31.957 25.7256 33 23.1 33H9.9C7.27436 33 4.75625 31.957 2.89964 30.1004C1.04303 28.2437 0 25.7256 0 23.1L0 9.9C0 7.27436 1.04303 4.75625 2.89964 2.89964C4.75625 1.04303 7.27436 0 9.9 0ZM9.9 3.3C8.14957 3.3 6.47084 3.99536 5.2331 5.2331C3.99536 6.47084 3.3 8.14957 3.3 9.9V23.1C3.3 24.8504 3.99536 26.5292 5.2331 27.7669C6.47084 29.0046 8.14957 29.7 9.9 29.7H23.1C24.8504 29.7 26.5292 29.0046 27.7669 27.7669C29.0046 26.5292 29.7 24.8504 29.7 23.1V9.9C29.7 8.14957 29.0046 6.47084 27.7669 5.2331C26.5292 3.99536 24.8504 3.3 23.1 3.3H9.9ZM19.8 14.85H24.75C25.1876 14.85 25.6073 15.0238 25.9167 15.3333C26.2262 15.6427 26.4 16.0624 26.4 16.5C26.4 16.9376 26.2262 17.3573 25.9167 17.6667C25.6073 17.9762 25.1876 18.15 24.75 18.15H19.8C19.3624 18.15 18.9427 17.9762 18.6333 17.6667C18.3238 17.3573 18.15 16.9376 18.15 16.5C18.15 16.0624 18.3238 15.6427 18.6333 15.3333C18.9427 15.0238 19.3624 14.85 19.8 14.85ZM16.5 21.45H24.75C25.1876 21.45 25.6073 21.6238 25.9167 21.9333C26.2262 22.2427 26.4 22.6624 26.4 23.1C26.4 23.5376 26.2262 23.9573 25.9167 24.2667C25.6073 24.5762 25.1876 24.75 24.75 24.75H16.5C16.0624 24.75 15.6427 24.5762 15.3333 24.2667C15.0238 23.9573 14.85 23.5376 14.85 23.1C14.85 22.6624 15.0238 22.2427 15.3333 21.9333C15.6427 21.6238 16.0624 21.45 16.5 21.45ZM16.5 8.25H24.75C25.1876 8.25 25.6073 8.42384 25.9167 8.73327C26.2262 9.04271 26.4 9.46239 26.4 9.9C26.4 10.3376 26.2262 10.7573 25.9167 11.0667C25.6073 11.3762 25.1876 11.55 24.75 11.55H16.5C16.0624 11.55 15.6427 11.3762 15.3333 11.0667C15.0238 10.7573 14.85 10.3376 14.85 9.9C14.85 9.46239 15.0238 9.04271 15.3333 8.73327C15.6427 8.42384 16.0624 8.25 16.5 8.25ZM9.6162 16.9009L13.1175 13.398C13.4271 13.0886 13.8469 12.9149 14.2846 12.915C14.5014 12.9151 14.7159 12.9579 14.9161 13.0409C15.1163 13.1239 15.2982 13.2455 15.4514 13.3988C15.6046 13.5521 15.7261 13.7341 15.809 13.9344C15.8918 14.1346 15.9345 14.3492 15.9344 14.566C15.9343 14.7827 15.8915 14.9973 15.8085 15.1975C15.7255 15.3977 15.6039 15.5796 15.4506 15.7327L10.7844 20.3989C10.6312 20.5524 10.4492 20.6741 10.2489 20.7571C10.0486 20.8401 9.83386 20.8829 9.61702 20.8829C9.40019 20.8829 9.18548 20.8401 8.98517 20.7571C8.78487 20.6741 8.60289 20.5524 8.44965 20.3989L6.11655 18.0675C5.81599 17.7563 5.64968 17.3395 5.65344 16.9069C5.6572 16.4743 5.83073 16.0604 6.13665 15.7545C6.44257 15.4486 6.85641 15.275 7.28904 15.2713C7.72166 15.2675 8.13846 15.4338 8.44965 15.7344L9.6162 16.9009Z" fill="#A0AAB8"/>
</svg>
